<svg xmlns="http://www.w3.org/2000/svg" xmlns:xlink="http://www.w3.org/1999/xlink" xmlns:inkscape="http://www.inkscape.org/namespaces/inkscape" version="1.1" width="1440" height="810" viewBox="0 0 1440 810">
<defs>
<clipPath id="clip_0">
<path transform="matrix(.24,0,0,.24,0,0)" d="M0 0H6000V3406.25H0Z" clip-rule="evenodd"/>
</clipPath>
<clipPath id="clip_1">
<path transform="matrix(.24,0,0,.24,0,0)" d="M0 0H6000V3406.25H0Z"/>
</clipPath>
<clipPath id="clip_2">
<path transform="matrix(.24,0,0,.24,0,0)" d="M0 209.375H6000V3165.625H0Z"/>
</clipPath>
<clipPath id="clip_3">
<path transform="matrix(.24,0,0,.24,0,0)" d="M1718.178 735.0315H2068.412V1085.2655H1718.178Z"/>
</clipPath>
<clipPath id="clip_4">
<path transform="matrix(.24,0,0,.24,0,0)" d="M1893.295 735.0315C1796.5806 735.0315 1718.178 813.4341 1718.178 910.1485 1718.178 1006.863 1796.5806 1085.2655 1893.295 1085.2655 1990.0095 1085.2655 2068.412 1006.863 2068.412 910.1485 2068.412 813.4341 1990.0095 735.0315 1893.295 735.0315Z"/>
</clipPath>
<clipPath id="clip_5">
<path transform="matrix(.24,0,0,.24,0,0)" d="M0 0H6000V3406.25H0Z"/>
</clipPath>
<clipPath id="clip_6">
<path transform="matrix(.24,0,0,.24,0,0)" d="M0 209.375H6000V3165.625H0Z"/>
</clipPath>
<clipPath id="clip_7">
<path transform="matrix(.24,0,0,.24,0,0)" d="M2068.412 384.7975H2418.6463V735.0315H2068.412Z"/>
</clipPath>
<clipPath id="clip_8">
<path transform="matrix(.24,0,0,.24,0,0)" d="M2243.529 384.7975C2146.8148 384.7975 2068.412 463.20005 2068.412 559.9145 2068.412 656.62899 2146.8148 735.0315 2243.529 735.0315 2340.2437 735.0315 2418.6463 656.62899 2418.6463 559.9145 2418.6463 463.20005 2340.2437 384.7975 2243.529 384.7975Z"/>
</clipPath>
<clipPath id="clip_9">
<path transform="matrix(.24,0,0,.24,0,0)" d="M0 0H6000V3406.25H0Z"/>
</clipPath>
<clipPath id="clip_10">
<path transform="matrix(.24,0,0,.24,0,0)" d="M0 209.375H6000V3165.625H0Z"/>
</clipPath>
<clipPath id="clip_11">
<path transform="matrix(.24,0,0,.24,0,0)" d="M2068.412 735.0315H2418.6463V1085.2655H2068.412Z"/>
</clipPath>
<clipPath id="clip_12">
<path transform="matrix(.24,0,0,.24,0,0)" d="M2243.529 735.0315C2146.8148 735.0315 2068.412 813.4341 2068.412 910.1485 2068.412 1006.863 2146.8148 1085.2655 2243.529 1085.2655 2340.2437 1085.2655 2418.6463 1006.863 2418.6463 910.1485 2418.6463 813.4341 2340.2437 735.0315 2243.529 735.0315Z"/>
</clipPath>
<clipPath id="clip_13">
<path transform="matrix(.24,0,0,.24,0,0)" d="M0 0H6000V3406.25H0Z"/>
</clipPath>
<clipPath id="clip_14">
<path transform="matrix(.24,0,0,.24,0,0)" d="M0 209.375H6000V3165.625H0Z"/>
</clipPath>
<clipPath id="clip_15">
<path transform="matrix(.24,0,0,.24,0,0)" d="M2418.646 735.0315H2768.8802V1085.2655H2418.646Z"/>
</clipPath>
<clipPath id="clip_16">
<path transform="matrix(.24,0,0,.24,0,0)" d="M2593.763 735.0315C2497.0487 735.0315 2418.646 813.4341 2418.646 910.1485 2418.646 1006.863 2497.0487 1085.2655 2593.763 1085.2655 2690.4776 1085.2655 2768.8802 1006.863 2768.8802 910.1485 2768.8802 813.4341 2690.4776 735.0315 2593.763 735.0315Z"/>
</clipPath>
<clipPath id="clip_17">
<path transform="matrix(.24,0,0,.24,0,0)" d="M0 0H6000V3406.25H0Z"/>
</clipPath>
<clipPath id="clip_18">
<path transform="matrix(.24,0,0,.24,0,0)" d="M0 209.375H6000V3165.625H0Z"/>
</clipPath>
<clipPath id="clip_19">
<path transform="matrix(.24,0,0,.24,0,0)" d="M2068.412 1085.2655H2418.6463V1435.4995H2068.412Z"/>
</clipPath>
<clipPath id="clip_20">
<path transform="matrix(.24,0,0,.24,0,0)" d="M2243.529 1085.2655C2146.8148 1085.2655 2068.412 1163.6681 2068.412 1260.3826 2068.412 1357.0969 2146.8148 1435.4995 2243.529 1435.4995 2340.2437 1435.4995 2418.6463 1357.0969 2418.6463 1260.3826 2418.6463 1163.6681 2340.2437 1085.2655 2243.529 1085.2655Z"/>
</clipPath>
<clipPath id="clip_21">
<path transform="matrix(.24,0,0,.24,0,0)" d="M0 0H6000V3406.25H0Z"/>
</clipPath>
<clipPath id="clip_22">
<path transform="matrix(.24,0,0,.24,0,0)" d="M0 209.375H6000V3165.625H0Z"/>
</clipPath>
<clipPath id="clip_23">
<path transform="matrix(.24,0,0,.24,0,0)" d="M3294.2315 811.6452H3556.907V1074.3208H3294.2315Z"/>
</clipPath>
<clipPath id="clip_24">
<path transform="matrix(.24,0,0,.24,0,0)" d="M3425.5694 811.6452C3353.0335 811.6452 3294.2315 870.44717 3294.2315 942.983 3294.2315 1015.5188 3353.0335 1074.3208 3425.5694 1074.3208 3498.105 1074.3208 3556.907 1015.5188 3556.907 942.983 3556.907 870.44717 3498.105 811.6452 3425.5694 811.6452Z"/>
</clipPath>
<clipPath id="clip_25">
<path transform="matrix(.24,0,0,.24,0,0)" d="M0 0H6000V3406.25H0Z"/>
</clipPath>
<clipPath id="clip_26">
<path transform="matrix(.24,0,0,.24,0,0)" d="M0 209.375H6000V3165.625H0Z"/>
</clipPath>
<clipPath id="clip_27">
<path transform="matrix(.24,0,0,.24,0,0)" d="M3425.569 548.96969H3688.2447V811.6452H3425.569Z"/>
</clipPath>
<clipPath id="clip_28">
<path transform="matrix(.24,0,0,.24,0,0)" d="M3556.9068 548.96969C3484.371 548.96969 3425.569 607.7716 3425.569 680.30746 3425.569 752.84329 3484.371 811.6452 3556.9068 811.6452 3629.4427 811.6452 3688.2447 752.84329 3688.2447 680.30746 3688.2447 607.7716 3629.4427 548.96969 3556.9068 548.96969Z"/>
</clipPath>
<clipPath id="clip_29">
<path transform="matrix(.24,0,0,.24,0,0)" d="M0 0H6000V3406.25H0Z"/>
</clipPath>
<clipPath id="clip_30">
<path transform="matrix(.24,0,0,.24,0,0)" d="M0 209.375H6000V3165.625H0Z"/>
</clipPath>
<clipPath id="clip_31">
<path transform="matrix(.24,0,0,.24,0,0)" d="M3688.2447 417.6319H3950.9202V680.30746H3688.2447Z"/>
</clipPath>
<clipPath id="clip_32">
<path transform="matrix(.24,0,0,.24,0,0)" d="M3819.5826 417.6319C3747.0467 417.6319 3688.2447 476.4338 3688.2447 548.96969 3688.2447 621.5055 3747.0467 680.30746 3819.5826 680.30746 3892.1182 680.30746 3950.9202 621.5055 3950.9202 548.96969 3950.9202 476.4338 3892.1182 417.6319 3819.5826 417.6319Z"/>
</clipPath>
<clipPath id="clip_33">
<path transform="matrix(.24,0,0,.24,0,0)" d="M0 0H6000V3406.25H0Z"/>
</clipPath>
<clipPath id="clip_34">
<path transform="matrix(.24,0,0,.24,0,0)" d="M0 209.375H6000V3165.625H0Z"/>
</clipPath>
<clipPath id="clip_35">
<path transform="matrix(.24,0,0,.24,0,0)" d="M3425.569 1074.3207H3688.2447V1336.9962H3425.569Z"/>
</clipPath>
<clipPath id="clip_36">
<path transform="matrix(.24,0,0,.24,0,0)" d="M3556.9068 1074.3207C3484.371 1074.3207 3425.569 1133.1226 3425.569 1205.6585 3425.569 1278.1943 3484.371 1336.9962 3556.9068 1336.9962 3629.4427 1336.9962 3688.2447 1278.1943 3688.2447 1205.6585 3688.2447 1133.1226 3629.4427 1074.3207 3556.9068 1074.3207Z"/>
</clipPath>
<clipPath id="clip_37">
<path transform="matrix(.24,0,0,.24,0,0)" d="M0 0H6000V3406.25H0Z"/>
</clipPath>
<clipPath id="clip_38">
<path transform="matrix(.24,0,0,.24,0,0)" d="M0 209.375H6000V3165.625H0Z"/>
</clipPath>
<clipPath id="clip_39">
<path transform="matrix(.24,0,0,.24,0,0)" d="M3688.2447 1205.6586H3950.9202V1468.3341H3688.2447Z"/>
</clipPath>
<clipPath id="clip_40">
<path transform="matrix(.24,0,0,.24,0,0)" d="M3819.5826 1205.6586C3747.0467 1205.6586 3688.2447 1264.4605 3688.2447 1336.9963 3688.2447 1409.5322 3747.0467 1468.3341 3819.5826 1468.3341 3892.1182 1468.3341 3950.9202 1409.5322 3950.9202 1336.9963 3950.9202 1264.4605 3892.1182 1205.6586 3819.5826 1205.6586Z"/>
</clipPath>
<clipPath id="clip_41">
<path transform="matrix(.24,0,0,.24,0,0)" d="M0 0H6000V3406.25H0Z"/>
</clipPath>
<clipPath id="clip_42">
<path transform="matrix(.24,0,0,.24,0,0)" d="M0 209.375H6000V3165.625H0Z"/>
</clipPath>
<clipPath id="clip_43">
<path transform="matrix(.24,0,0,.24,0,0)" d="M3950.9202 1074.3207H4213.5959V1336.9962H3950.9202Z"/>
</clipPath>
<clipPath id="clip_44">
<path transform="matrix(.24,0,0,.24,0,0)" d="M4082.2579 1074.3207C4009.7222 1074.3207 3950.9202 1133.1226 3950.9202 1205.6585 3950.9202 1278.1943 4009.7222 1336.9962 4082.2579 1336.9962 4154.794 1336.9962 4213.5959 1278.1943 4213.5959 1205.6585 4213.5959 1133.1226 4154.794 1074.3207 4082.2579 1074.3207Z"/>
</clipPath>
<clipPath id="clip_45">
<path transform="matrix(.24,0,0,.24,0,0)" d="M0 0H6000V3406.25H0Z"/>
</clipPath>
<clipPath id="clip_46">
<path transform="matrix(.24,0,0,.24,0,0)" d="M0 209.375H6000V3165.625H0Z"/>
</clipPath>
<clipPath id="clip_47">
<path transform="matrix(.24,0,0,.24,0,0)" d="M4082.2579 811.6452H4344.9338V1074.3208H4082.2579Z"/>
</clipPath>
<clipPath id="clip_48">
<path transform="matrix(.24,0,0,.24,0,0)" d="M4213.5959 811.6452C4141.0598 811.6452 4082.2579 870.44717 4082.2579 942.983 4082.2579 1015.5188 4141.0598 1074.3208 4213.5959 1074.3208 4286.1315 1074.3208 4344.9338 1015.5188 4344.9338 942.983 4344.9338 870.44717 4286.1315 811.6452 4213.5959 811.6452Z"/>
</clipPath>
<clipPath id="clip_49">
<path transform="matrix(.24,0,0,.24,0,0)" d="M0 0H6000V3406.25H0Z"/>
</clipPath>
<clipPath id="clip_50">
<path transform="matrix(.24,0,0,.24,0,0)" d="M0 209.375H6000V3165.625H0Z"/>
</clipPath>
<clipPath id="clip_51">
<path transform="matrix(.24,0,0,.24,0,0)" d="M3950.9202 548.96969H4213.5959V811.6452H3950.9202Z"/>
</clipPath>
<clipPath id="clip_52">
<path transform="matrix(.24,0,0,.24,0,0)" d="M4082.2579 548.96969C4009.7222 548.96969 3950.9202 607.7716 3950.9202 680.30746 3950.9202 752.84329 4009.7222 811.6452 4082.2579 811.6452 4154.794 811.6452 4213.5959 752.84329 4213.5959 680.30746 4213.5959 607.7716 4154.794 548.96969 4082.2579 548.96969Z"/>
</clipPath>
<clipPath id="clip_53">
<path transform="matrix(.24,0,0,.24,0,0)" d="M0 0H6000V3406.25H0Z"/>
</clipPath>
<clipPath id="clip_54">
<path transform="matrix(.24,0,0,.24,0,0)" d="M0 209.375H6000V3165.625H0Z"/>
</clipPath>
<clipPath id="clip_55">
<path transform="matrix(.24,0,0,.24,0,0)" d="M3688.2447 811.6452H3950.9202V1074.3208H3688.2447Z"/>
</clipPath>
<clipPath id="clip_56">
<path transform="matrix(.24,0,0,.24,0,0)" d="M3819.5826 811.6452C3747.0467 811.6452 3688.2447 870.44717 3688.2447 942.983 3688.2447 1015.5188 3747.0467 1074.3208 3819.5826 1074.3208 3892.1182 1074.3208 3950.9202 1015.5188 3950.9202 942.983 3950.9202 870.44717 3892.1182 811.6452 3819.5826 811.6452Z"/>
</clipPath>
<clipPath id="clip_57">
<path transform="matrix(.24,0,0,.24,0,0)" d="M0 0H6000V3406.25H0Z"/>
</clipPath>
<clipPath id="clip_58">
<path transform="matrix(.24,0,0,.24,0,0)" d="M0 209.375H6000V3165.625H0Z"/>
</clipPath>
<clipPath id="clip_59">
<path transform="matrix(.24,0,0,.24,0,0)" d="M5264.2976 384.7975H5428.4699V548.96969H5264.2976Z"/>
</clipPath>
<clipPath id="clip_60">
<path transform="matrix(.24,0,0,.24,0,0)" d="M5346.3835 384.7975C5301.0485 384.7975 5264.2976 421.54869 5264.2976 466.88359 5264.2976 512.2185 5301.0485 548.96969 5346.3835 548.96969 5391.7185 548.96969 5428.4699 512.2185 5428.4699 466.88359 5428.4699 421.54869 5391.7185 384.7975 5346.3835 384.7975Z"/>
</clipPath>
<clipPath id="clip_61">
<path transform="matrix(.24,0,0,.24,0,0)" d="M0 0H6000V3406.25H0Z"/>
</clipPath>
<clipPath id="clip_62">
<path transform="matrix(.24,0,0,.24,0,0)" d="M0 209.375H6000V3165.625H0Z"/>
</clipPath>
<clipPath id="clip_63">
<path transform="matrix(.24,0,0,.24,0,0)" d="M5100.1257 466.88359H5264.298V631.0558H5100.1257Z"/>
</clipPath>
<clipPath id="clip_64">
<path transform="matrix(.24,0,0,.24,0,0)" d="M5182.2116 466.88359C5136.8767 466.88359 5100.1257 503.63478 5100.1257 548.96969 5100.1257 594.30459 5136.8767 631.0558 5182.2116 631.0558 5227.5466 631.0558 5264.298 594.30459 5264.298 548.96969 5264.298 503.63478 5227.5466 466.88359 5182.2116 466.88359Z"/>
</clipPath>
<clipPath id="clip_65">
<path transform="matrix(.24,0,0,.24,0,0)" d="M0 0H6000V3406.25H0Z"/>
</clipPath>
<clipPath id="clip_66">
<path transform="matrix(.24,0,0,.24,0,0)" d="M0 209.375H6000V3165.625H0Z"/>
</clipPath>
<clipPath id="clip_67">
<path transform="matrix(.24,0,0,.24,0,0)" d="M4952.3708 631.0558H5116.543V795.22799H4952.3708Z"/>
</clipPath>
<clipPath id="clip_68">
<path transform="matrix(.24,0,0,.24,0,0)" d="M5034.4567 631.0558C4989.1218 631.0558 4952.3708 667.807 4952.3708 713.1419 4952.3708 758.4768 4989.1218 795.22799 5034.4567 795.22799 5079.7917 795.22799 5116.543 758.4768 5116.543 713.1419 5116.543 667.807 5079.7917 631.0558 5034.4567 631.0558Z"/>
</clipPath>
<clipPath id="clip_69">
<path transform="matrix(.24,0,0,.24,0,0)" d="M0 0H6000V3406.25H0Z"/>
</clipPath>
<clipPath id="clip_70">
<path transform="matrix(.24,0,0,.24,0,0)" d="M0 209.375H6000V3165.625H0Z"/>
</clipPath>
<clipPath id="clip_71">
<path transform="matrix(.24,0,0,.24,0,0)" d="M4870.284 795.228H5034.4567V959.4002H4870.284Z"/>
</clipPath>
<clipPath id="clip_72">
<path transform="matrix(.24,0,0,.24,0,0)" d="M4952.37 795.228C4907.035 795.228 4870.284 831.97927 4870.284 877.31417 4870.284 922.64907 4907.035 959.4002 4952.37 959.4002 4997.705 959.4002 5034.4567 922.64907 5034.4567 877.31417 5034.4567 831.97927 4997.705 795.228 4952.37 795.228Z"/>
</clipPath>
<clipPath id="clip_73">
<path transform="matrix(.24,0,0,.24,0,0)" d="M0 0H6000V3406.25H0Z"/>
</clipPath>
<clipPath id="clip_74">
<path transform="matrix(.24,0,0,.24,0,0)" d="M0 209.375H6000V3165.625H0Z"/>
</clipPath>
<clipPath id="clip_75">
<path transform="matrix(.24,0,0,.24,0,0)" d="M5264.2976 1205.6586H5428.4699V1369.8308H5264.2976Z"/>
</clipPath>
<clipPath id="clip_76">
<path transform="matrix(.24,0,0,.24,0,0)" d="M5346.3835 1205.6586C5301.0485 1205.6586 5264.2976 1242.4098 5264.2976 1287.7446 5264.2976 1333.0796 5301.0485 1369.8308 5346.3835 1369.8308 5391.7185 1369.8308 5428.4699 1333.0796 5428.4699 1287.7446 5428.4699 1242.4098 5391.7185 1205.6586 5346.3835 1205.6586Z"/>
</clipPath>
<clipPath id="clip_77">
<path transform="matrix(.24,0,0,.24,0,0)" d="M0 0H6000V3406.25H0Z"/>
</clipPath>
<clipPath id="clip_78">
<path transform="matrix(.24,0,0,.24,0,0)" d="M0 209.375H6000V3165.625H0Z"/>
</clipPath>
<clipPath id="clip_79">
<path transform="matrix(.24,0,0,.24,0,0)" d="M4952.3708 959.40017H5116.543V1123.5724H4952.3708Z"/>
</clipPath>
<clipPath id="clip_80">
<path transform="matrix(.24,0,0,.24,0,0)" d="M5034.4567 959.40017C4989.1218 959.40017 4952.3708 996.15139 4952.3708 1041.4862 4952.3708 1086.8212 4989.1218 1123.5724 5034.4567 1123.5724 5079.7917 1123.5724 5116.543 1086.8212 5116.543 1041.4862 5116.543 996.15139 5079.7917 959.40017 5034.4567 959.40017Z"/>
</clipPath>
<clipPath id="clip_81">
<path transform="matrix(.24,0,0,.24,0,0)" d="M0 0H6000V3406.25H0Z"/>
</clipPath>
<clipPath id="clip_82">
<path transform="matrix(.24,0,0,.24,0,0)" d="M0 209.375H6000V3165.625H0Z"/>
</clipPath>
<clipPath id="clip_83">
<path transform="matrix(.24,0,0,.24,0,0)" d="M5067.291 1123.5724H5231.4636V1287.7446H5067.291Z"/>
</clipPath>
<clipPath id="clip_84">
<path transform="matrix(.24,0,0,.24,0,0)" d="M5149.377 1123.5724C5104.042 1123.5724 5067.291 1160.3236 5067.291 1205.6585 5067.291 1250.9934 5104.042 1287.7446 5149.377 1287.7446 5194.712 1287.7446 5231.4636 1250.9934 5231.4636 1205.6585 5231.4636 1160.3236 5194.712 1123.5724 5149.377 1123.5724Z"/>
</clipPath>
<clipPath id="clip_85">
<path transform="matrix(.24,0,0,.24,0,0)" d="M0 0H6000V3406.25H0Z"/>
</clipPath>
<clipPath id="clip_86">
<path transform="matrix(.24,0,0,.24,0,0)" d="M0 209.375H6000V3165.625H0Z"/>
</clipPath>
<clipPath id="clip_87">
<path transform="matrix(.24,0,0,.24,0,0)" d="M5691.1457 795.228H5855.318V959.4002H5691.1457Z"/>
</clipPath>
<clipPath id="clip_88">
<path transform="matrix(.24,0,0,.24,0,0)" d="M5773.2316 795.228C5727.8967 795.228 5691.1457 831.97927 5691.1457 877.31417 5691.1457 922.64907 5727.8967 959.4002 5773.2316 959.4002 5818.5666 959.4002 5855.318 922.64907 5855.318 877.31417 5855.318 831.97927 5818.5666 795.228 5773.2316 795.228Z"/>
</clipPath>
<clipPath id="clip_89">
<path transform="matrix(.24,0,0,.24,0,0)" d="M0 0H6000V3406.25H0Z"/>
</clipPath>
<clipPath id="clip_90">
<path transform="matrix(.24,0,0,.24,0,0)" d="M0 209.375H6000V3165.625H0Z"/>
</clipPath>
<clipPath id="clip_91">
<path transform="matrix(.24,0,0,.24,0,0)" d="M5444.8869 1123.5724H5609.059V1287.7446H5444.8869Z"/>
</clipPath>
<clipPath id="clip_92">
<path transform="matrix(.24,0,0,.24,0,0)" d="M5526.9729 1123.5724C5481.6379 1123.5724 5444.8869 1160.3236 5444.8869 1205.6585 5444.8869 1250.9934 5481.6379 1287.7446 5526.9729 1287.7446 5572.3078 1287.7446 5609.059 1250.9934 5609.059 1205.6585 5609.059 1160.3236 5572.3078 1123.5724 5526.9729 1123.5724Z"/>
</clipPath>
<clipPath id="clip_93">
<path transform="matrix(.24,0,0,.24,0,0)" d="M0 0H6000V3406.25H0Z"/>
</clipPath>
<clipPath id="clip_94">
<path transform="matrix(.24,0,0,.24,0,0)" d="M0 209.375H6000V3165.625H0Z"/>
</clipPath>
<clipPath id="clip_95">
<path transform="matrix(.24,0,0,.24,0,0)" d="M5609.059 959.40017H5773.2316V1123.5724H5609.059Z"/>
</clipPath>
<clipPath id="clip_96">
<path transform="matrix(.24,0,0,.24,0,0)" d="M5691.145 959.40017C5645.81 959.40017 5609.059 996.15139 5609.059 1041.4862 5609.059 1086.8212 5645.81 1123.5724 5691.145 1123.5724 5736.48 1123.5724 5773.2316 1086.8212 5773.2316 1041.4862 5773.2316 996.15139 5736.48 959.40017 5691.145 959.40017Z"/>
</clipPath>
<clipPath id="clip_97">
<path transform="matrix(.24,0,0,.24,0,0)" d="M0 0H6000V3406.25H0Z"/>
</clipPath>
<clipPath id="clip_98">
<path transform="matrix(.24,0,0,.24,0,0)" d="M0 209.375H6000V3165.625H0Z"/>
</clipPath>
<clipPath id="clip_99">
<path transform="matrix(.24,0,0,.24,0,0)" d="M5592.6418 631.0558H5756.814V795.22799H5592.6418Z"/>
</clipPath>
<clipPath id="clip_100">
<path transform="matrix(.24,0,0,.24,0,0)" d="M5674.7277 631.0558C5629.3928 631.0558 5592.6418 667.807 5592.6418 713.1419 5592.6418 758.4768 5629.3928 795.22799 5674.7277 795.22799 5720.0627 795.22799 5756.814 758.4768 5756.814 713.1419 5756.814 667.807 5720.0627 631.0558 5674.7277 631.0558Z"/>
</clipPath>
<clipPath id="clip_101">
<path transform="matrix(.24,0,0,.24,0,0)" d="M0 0H6000V3406.25H0Z"/>
</clipPath>
<clipPath id="clip_102">
<path transform="matrix(.24,0,0,.24,0,0)" d="M0 209.375H6000V3165.625H0Z"/>
</clipPath>
<clipPath id="clip_103">
<path transform="matrix(.24,0,0,.24,0,0)" d="M5444.8869 466.88359H5609.059V631.0558H5444.8869Z"/>
</clipPath>
<clipPath id="clip_104">
<path transform="matrix(.24,0,0,.24,0,0)" d="M5526.9729 466.88359C5481.6379 466.88359 5444.8869 503.63478 5444.8869 548.96969 5444.8869 594.30459 5481.6379 631.0558 5526.9729 631.0558 5572.3078 631.0558 5609.059 594.30459 5609.059 548.96969 5609.059 503.63478 5572.3078 466.88359 5526.9729 466.88359Z"/>
</clipPath>
<clipPath id="clip_105">
<path transform="matrix(.24,0,0,.24,0,0)" d="M0 0H6000V3406.25H0Z"/>
</clipPath>
<clipPath id="clip_106">
<path transform="matrix(.24,0,0,.24,0,0)" d="M0 209.375H6000V3165.625H0Z"/>
</clipPath>
<clipPath id="clip_107">
<path transform="matrix(.24,0,0,.24,0,0)" d="M5264.2976 795.228H5428.4699V959.4002H5264.2976Z"/>
</clipPath>
<clipPath id="clip_108">
<path transform="matrix(.24,0,0,.24,0,0)" d="M5346.3835 795.228C5301.0485 795.228 5264.2976 831.97927 5264.2976 877.31417 5264.2976 922.64907 5301.0485 959.4002 5346.3835 959.4002 5391.7185 959.4002 5428.4699 922.64907 5428.4699 877.31417 5428.4699 831.97927 5391.7185 795.228 5346.3835 795.228Z"/>
</clipPath>
<clipPath id="clip_109">
<path transform="matrix(.24,0,0,.24,0,0)" d="M0 0H6000V3406.25H0Z"/>
</clipPath>
<clipPath id="clip_110">
<path transform="matrix(.24,0,0,.24,0,0)" d="M0 209.375H6000V3165.625H0Z"/>
</clipPath>
<clipPath id="clip_111">
<path transform="matrix(.24,0,0,.24,0,0)" d="M5264.2976 590.01278H5428.4699V754.18496H5264.2976Z"/>
</clipPath>
<clipPath id="clip_112">
<path transform="matrix(.24,0,0,.24,0,0)" d="M5346.3835 590.01278C5301.0485 590.01278 5264.2976 626.764 5264.2976 672.0989 5264.2976 717.4338 5301.0485 754.18496 5346.3835 754.18496 5391.7185 754.18496 5428.4699 717.4338 5428.4699 672.0989 5428.4699 626.764 5391.7185 590.01278 5346.3835 590.01278Z"/>
</clipPath>
<clipPath id="clip_113">
<path transform="matrix(.24,0,0,.24,0,0)" d="M0 0H6000V3406.25H0Z"/>
</clipPath>
<clipPath id="clip_114">
<path transform="matrix(.24,0,0,.24,0,0)" d="M0 209.375H6000V3165.625H0Z"/>
</clipPath>
<clipPath id="clip_115">
<path transform="matrix(.24,0,0,.24,0,0)" d="M5477.721 795.228H5641.8937V959.4002H5477.721Z"/>
</clipPath>
<clipPath id="clip_116">
<path transform="matrix(.24,0,0,.24,0,0)" d="M5559.807 795.228C5514.472 795.228 5477.721 831.97927 5477.721 877.31417 5477.721 922.64907 5514.472 959.4002 5559.807 959.4002 5605.142 959.4002 5641.8937 922.64907 5641.8937 877.31417 5641.8937 831.97927 5605.142 795.228 5559.807 795.228Z"/>
</clipPath>
<clipPath id="clip_117">
<path transform="matrix(.24,0,0,.24,0,0)" d="M0 0H6000V3406.25H0Z"/>
</clipPath>
<clipPath id="clip_118">
<path transform="matrix(.24,0,0,.24,0,0)" d="M0 209.375H6000V3165.625H0Z"/>
</clipPath>
<clipPath id="clip_119">
<path transform="matrix(.24,0,0,.24,0,0)" d="M5067.291 795.228H5231.4636V959.4002H5067.291Z"/>
</clipPath>
<clipPath id="clip_120">
<path transform="matrix(.24,0,0,.24,0,0)" d="M5149.377 795.228C5104.042 795.228 5067.291 831.97927 5067.291 877.31417 5067.291 922.64907 5104.042 959.4002 5149.377 959.4002 5194.712 959.4002 5231.4636 922.64907 5231.4636 877.31417 5231.4636 831.97927 5194.712 795.228 5149.377 795.228Z"/>
</clipPath>
<clipPath id="clip_121">
<path transform="matrix(.24,0,0,.24,0,0)" d="M0 0H6000V3406.25H0Z"/>
</clipPath>
<clipPath id="clip_122">
<path transform="matrix(.24,0,0,.24,0,0)" d="M0 209.375H6000V3165.625H0Z"/>
</clipPath>
<clipPath id="clip_123">
<path transform="matrix(.24,0,0,.24,0,0)" d="M5264.2976 992.2346H5428.4699V1156.4069H5264.2976Z"/>
</clipPath>
<clipPath id="clip_124">
<path transform="matrix(.24,0,0,.24,0,0)" d="M5346.3835 992.2346C5301.0485 992.2346 5264.2976 1028.9859 5264.2976 1074.3207 5264.2976 1119.6557 5301.0485 1156.4069 5346.3835 1156.4069 5391.7185 1156.4069 5428.4699 1119.6557 5428.4699 1074.3207 5428.4699 1028.9859 5391.7185 992.2346 5346.3835 992.2346Z"/>
</clipPath>
<clipPath id="clip_125">
<path transform="matrix(.24,0,0,.24,0,0)" d="M0 0H6000V3406.25H0Z"/>
</clipPath>
<clipPath id="clip_126">
<path transform="matrix(.24,0,0,.24,0,0)" d="M0 209.375H6000V3165.625H0Z"/>
</clipPath>
<clipPath id="clip_127">
<path transform="matrix(.24,0,0,.24,0,0)" d="M142.12476 351.96305H1192.8269V1402.6652H142.12476Z"/>
</clipPath>
<clipPath id="clip_128">
<path transform="matrix(.24,0,0,.24,0,0)" d="M667.4758 351.96305C377.33247 351.96305 142.12476 587.1707 142.12476 877.3141 142.12476 1167.4575 377.33247 1402.6652 667.4758 1402.6652 957.6192 1402.6652 1192.8269 1167.4575 1192.8269 877.3141 1192.8269 587.1707 957.6192 351.96305 667.4758 351.96305Z"/>
</clipPath>
<clipPath id="clip_129">
<path transform="matrix(.24,0,0,.24,0,0)" d="M0 209.375H6000V3165.625H0Z" clip-rule="evenodd"/>
</clipPath>
</defs>
<g clip-path="url(#clip_0)">
<path transform="matrix(.75,0,0,.75,0,0)" d="M0 0H1920V1080H0Z" fill="#ffffff"/>
</g>
<g clip-path="url(#clip_1)">
<g clip-path="url(#clip_2)">
<g clip-path="url(#clip_3)">
<g clip-path="url(#clip_4)">
<path transform="matrix(.3283444,0,0,.3283444,412.3627,176.40756)" d="M0 0H256V256H0Z" fill="#7ed957"/>
</g>
</g>
</g>
</g>
<g clip-path="url(#clip_5)">
<g clip-path="url(#clip_6)">
<g clip-path="url(#clip_7)">
<g clip-path="url(#clip_8)">
<path transform="matrix(.3283444,0,0,.3283444,496.41889,92.351398)" d="M0 0H256V256H0Z" fill="#7ed957"/>
</g>
</g>
</g>
</g>
<g clip-path="url(#clip_9)">
<g clip-path="url(#clip_10)">
<g clip-path="url(#clip_11)">
<g clip-path="url(#clip_12)">
<path transform="matrix(.3283444,0,0,.3283444,496.41889,176.40756)" d="M0 0H256V256H0Z" fill="#7ed957"/>
</g>
</g>
</g>
</g>
<g clip-path="url(#clip_13)">
<g clip-path="url(#clip_14)">
<g clip-path="url(#clip_15)">
<g clip-path="url(#clip_16)">
<path transform="matrix(.3283444,0,0,.3283444,580.47506,176.40756)" d="M0 0H256V256H0Z" fill="#7ed957"/>
</g>
</g>
</g>
</g>
<g clip-path="url(#clip_17)">
<g clip-path="url(#clip_18)">
<g clip-path="url(#clip_19)">
<g clip-path="url(#clip_20)">
<path transform="matrix(.3283444,0,0,.3283444,496.41889,260.4637)" d="M0 0H256V256H0Z" fill="#7ed957"/>
</g>
</g>
</g>
</g>
<g clip-path="url(#clip_21)">
<g clip-path="url(#clip_22)">
<g clip-path="url(#clip_23)">
<g clip-path="url(#clip_24)">
<path transform="matrix(.2462583,0,0,.2462583,790.61557,194.79485)" d="M0 0H256V256H0Z" fill="#9f2121"/>
</g>
</g>
</g>
</g>
<g clip-path="url(#clip_25)">
<g clip-path="url(#clip_26)">
<g clip-path="url(#clip_27)">
<g clip-path="url(#clip_28)">
<path transform="matrix(.2462583,0,0,.2462583,822.13656,131.75272)" d="M0 0H256V256H0Z" fill="#9f2121"/>
</g>
</g>
</g>
</g>
<g clip-path="url(#clip_29)">
<g clip-path="url(#clip_30)">
<g clip-path="url(#clip_31)">
<g clip-path="url(#clip_32)">
<path transform="matrix(.2462583,0,0,.2462583,885.1787,100.23165)" d="M0 0H256V256H0Z" fill="#9f2121"/>
</g>
</g>
</g>
</g>
<g clip-path="url(#clip_33)">
<g clip-path="url(#clip_34)">
<g clip-path="url(#clip_35)">
<g clip-path="url(#clip_36)">
<path transform="matrix(.2462583,0,0,.2462583,822.13656,257.83695)" d="M0 0H256V256H0Z" fill="#9f2121"/>
</g>
</g>
</g>
</g>
<g clip-path="url(#clip_37)">
<g clip-path="url(#clip_38)">
<g clip-path="url(#clip_39)">
<g clip-path="url(#clip_40)">
<path transform="matrix(.2462583,0,0,.2462583,885.1787,289.35807)" d="M0 0H256V256H0Z" fill="#9f2121"/>
</g>
</g>
</g>
</g>
<g clip-path="url(#clip_41)">
<g clip-path="url(#clip_42)">
<g clip-path="url(#clip_43)">
<g clip-path="url(#clip_44)">
<path transform="matrix(.2462583,0,0,.2462583,948.2208,257.83695)" d="M0 0H256V256H0Z" fill="#9f2121"/>
</g>
</g>
</g>
</g>
<g clip-path="url(#clip_45)">
<g clip-path="url(#clip_46)">
<g clip-path="url(#clip_47)">
<g clip-path="url(#clip_48)">
<path transform="matrix(.2462583,0,0,.2462583,979.7419,194.79485)" d="M0 0H256V256H0Z" fill="#9f2121"/>
</g>
</g>
</g>
</g>
<g clip-path="url(#clip_49)">
<g clip-path="url(#clip_50)">
<g clip-path="url(#clip_51)">
<g clip-path="url(#clip_52)">
<path transform="matrix(.2462583,0,0,.2462583,948.2208,131.75272)" d="M0 0H256V256H0Z" fill="#9f2121"/>
</g>
</g>
</g>
</g>
<g clip-path="url(#clip_53)">
<g clip-path="url(#clip_54)">
<g clip-path="url(#clip_55)">
<g clip-path="url(#clip_56)">
<path transform="matrix(.2462583,0,0,.2462583,885.1787,194.79485)" d="M0 0H256V256H0Z" fill="#9f2121"/>
</g>
</g>
</g>
</g>
<g clip-path="url(#clip_57)">
<g clip-path="url(#clip_58)">
<g clip-path="url(#clip_59)">
<g clip-path="url(#clip_60)">
<path transform="matrix(.15391143,0,0,.15391143,1263.4314,92.351398)" d="M0 0H256V256H0Z" fill="#974fa8"/>
</g>
</g>
</g>
</g>
<g clip-path="url(#clip_61)">
<g clip-path="url(#clip_62)">
<g clip-path="url(#clip_63)">
<g clip-path="url(#clip_64)">
<path transform="matrix(.15391143,0,0,.15391143,1224.03,112.052059)" d="M0 0H256V256H0Z" fill="#974fa8"/>
</g>
</g>
</g>
</g>
<g clip-path="url(#clip_65)">
<g clip-path="url(#clip_66)">
<g clip-path="url(#clip_67)">
<g clip-path="url(#clip_68)">
<path transform="matrix(.15391143,0,0,.15391143,1188.569,151.45339)" d="M0 0H256V256H0Z" fill="#974fa8"/>
</g>
</g>
</g>
</g>
<g clip-path="url(#clip_69)">
<g clip-path="url(#clip_70)">
<g clip-path="url(#clip_71)">
<g clip-path="url(#clip_72)">
<path transform="matrix(.15391143,0,0,.15391143,1168.8682,190.85472)" d="M0 0H256V256H0Z" fill="#974fa8"/>
</g>
</g>
</g>
</g>
<g clip-path="url(#clip_73)">
<g clip-path="url(#clip_74)">
<g clip-path="url(#clip_75)">
<g clip-path="url(#clip_76)">
<path transform="matrix(.15391143,0,0,.15391143,1263.4314,289.35807)" d="M0 0H256V256H0Z" fill="#974fa8"/>
</g>
</g>
</g>
</g>
<g clip-path="url(#clip_77)">
<g clip-path="url(#clip_78)">
<g clip-path="url(#clip_79)">
<g clip-path="url(#clip_80)">
<path transform="matrix(.15391143,0,0,.15391143,1188.569,230.25603)" d="M0 0H256V256H0Z" fill="#974fa8"/>
</g>
</g>
</g>
</g>
<g clip-path="url(#clip_81)">
<g clip-path="url(#clip_82)">
<g clip-path="url(#clip_83)">
<g clip-path="url(#clip_84)">
<path transform="matrix(.15391143,0,0,.15391143,1216.1498,269.65739)" d="M0 0H256V256H0Z" fill="#974fa8"/>
</g>
</g>
</g>
</g>
<g clip-path="url(#clip_85)">
<g clip-path="url(#clip_86)">
<g clip-path="url(#clip_87)">
<g clip-path="url(#clip_88)">
<path transform="matrix(.15391143,0,0,.15391143,1365.8749,190.85472)" d="M0 0H256V256H0Z" fill="#974fa8"/>
</g>
</g>
</g>
</g>
<g clip-path="url(#clip_89)">
<g clip-path="url(#clip_90)">
<g clip-path="url(#clip_91)">
<g clip-path="url(#clip_92)">
<path transform="matrix(.15391143,0,0,.15391143,1306.7728,269.65739)" d="M0 0H256V256H0Z" fill="#974fa8"/>
</g>
</g>
</g>
</g>
<g clip-path="url(#clip_93)">
<g clip-path="url(#clip_94)">
<g clip-path="url(#clip_95)">
<g clip-path="url(#clip_96)">
<path transform="matrix(.15391143,0,0,.15391143,1346.1742,230.25603)" d="M0 0H256V256H0Z" fill="#974fa8"/>
</g>
</g>
</g>
</g>
<g clip-path="url(#clip_97)">
<g clip-path="url(#clip_98)">
<g clip-path="url(#clip_99)">
<g clip-path="url(#clip_100)">
<path transform="matrix(.15391143,0,0,.15391143,1342.234,151.45339)" d="M0 0H256V256H0Z" fill="#974fa8"/>
</g>
</g>
</g>
</g>
<g clip-path="url(#clip_101)">
<g clip-path="url(#clip_102)">
<g clip-path="url(#clip_103)">
<g clip-path="url(#clip_104)">
<path transform="matrix(.15391143,0,0,.15391143,1306.7728,112.052059)" d="M0 0H256V256H0Z" fill="#974fa8"/>
</g>
</g>
</g>
</g>
<g clip-path="url(#clip_105)">
<g clip-path="url(#clip_106)">
<g clip-path="url(#clip_107)">
<g clip-path="url(#clip_108)">
<path transform="matrix(.15391143,0,0,.15391143,1263.4314,190.85472)" d="M0 0H256V256H0Z" fill="#974fa8"/>
</g>
</g>
</g>
</g>
<g clip-path="url(#clip_109)">
<g clip-path="url(#clip_110)">
<g clip-path="url(#clip_111)">
<g clip-path="url(#clip_112)">
<path transform="matrix(.15391143,0,0,.15391143,1263.4314,141.60306)" d="M0 0H256V256H0Z" fill="#974fa8"/>
</g>
</g>
</g>
</g>
<g clip-path="url(#clip_113)">
<g clip-path="url(#clip_114)">
<g clip-path="url(#clip_115)">
<g clip-path="url(#clip_116)">
<path transform="matrix(.15391143,0,0,.15391143,1314.6531,190.85472)" d="M0 0H256V256H0Z" fill="#974fa8"/>
</g>
</g>
</g>
</g>
<g clip-path="url(#clip_117)">
<g clip-path="url(#clip_118)">
<g clip-path="url(#clip_119)">
<g clip-path="url(#clip_120)">
<path transform="matrix(.15391143,0,0,.15391143,1216.1498,190.85472)" d="M0 0H256V256H0Z" fill="#974fa8"/>
</g>
</g>
</g>
</g>
<g clip-path="url(#clip_121)">
<g clip-path="url(#clip_122)">
<g clip-path="url(#clip_123)">
<g clip-path="url(#clip_124)">
<path transform="matrix(.15391143,0,0,.15391143,1263.4314,238.1363)" d="M0 0H256V256H0Z" fill="#974fa8"/>
</g>
</g>
</g>
</g>
<g clip-path="url(#clip_125)">
<g clip-path="url(#clip_126)">
<g clip-path="url(#clip_127)">
<g clip-path="url(#clip_128)">
<path transform="matrix(.9850332,0,0,.9850332,34.10994,84.47113)" d="M0 0H256V256H0Z" fill="#5271ff"/>
</g>
</g>
</g>
</g>
<g clip-path="url(#clip_129)">
<text xml:space="preserve" transform="matrix(13.6381449 0 0 13.6381449 34.10994 319.91163)" font-size="22.99" font-family="Rosario" font-weight="bold"><tspan y="23" x="0 16.06601 24.087525 36.40709 49.18634 54.9554 66.30963 73.825489 83.708728 88.94914 94.7182">Droplets.jl</tspan></text>
</g>
</svg>
